HIERARCHY
ROOT Hips
{
    OFFSET 0.000000 0.000000 0.000000
    CHANNELS 6 Xposition Yposition Zposition Zrotation Xrotation Yrotation
    JOINT Spine
    {
        OFFSET -0.000000 7.236184 0.000000
        CHANNELS 3 Zrotation Xrotation Yrotation
        JOINT Spine1
        {
            OFFSET -0.000000 20.420147 0.000000
            CHANNELS 3 Zrotation Xrotation Yrotation
            JOINT Neck
            {
                OFFSET -0.000000 20.336288 1.848754
                CHANNELS 3 Zrotation Xrotation Yrotation
                JOINT Head
                {
                    OFFSET -0.000000 12.354461 -1.764923
                    CHANNELS 3 Zrotation Xrotation Yrotation
                    End Site
                    {
                        OFFSET -0.000000 22.061537 0.000000
                    }
                }
            }
            JOINT LeftShoulder
            {
                OFFSET 3.573296 18.396038 -0.314103
                CHANNELS 3 Zrotation Xrotation Yrotation
                JOINT LeftArm
                {
                    OFFSET 10.880760 0.000000 0.000000
                    CHANNELS 3 Zrotation Xrotation Yrotation
                    JOINT LeftForeArm
                    {
                        OFFSET 27.185530 0.000000 0.000000
                        CHANNELS 3 Zrotation Xrotation Yrotation
                        JOINT LeftHand
                        {
                            OFFSET 27.825975 0.000000 0.000000
                            CHANNELS 3 Zrotation Xrotation Yrotation
                            End Site
                            {
                                OFFSET 13.236923 0.000000 0.000000
                            }
                        }
                    }
                }
            }
            JOINT RightShoulder
            {
                OFFSET -3.474926 18.396038 -0.314103
                CHANNELS 3 Zrotation Xrotation Yrotation
                JOINT RightArm
                {
                    OFFSET -10.880760 0.000000 0.000000
                    CHANNELS 3 Zrotation Xrotation Yrotation
                    JOINT RightForeArm
                    {
                        OFFSET -27.185530 0.000000 0.000000
                        CHANNELS 3 Zrotation Xrotation Yrotation
                        JOINT RightHand
                        {
                            OFFSET -27.825975 0.000000 0.000000
                            CHANNELS 3 Zrotation Xrotation Yrotation
                            End Site
                            {
                                OFFSET -13.236923 0.000000 0.000000
                            }
                        }
                    }
                }
            }
        }
    }
    JOINT LeftUpLeg
    {
        OFFSET 8.824615 0.000000 0.000000
        CHANNELS 3 Zrotation Xrotation Yrotation
        JOINT LeftLeg
        {
            OFFSET -0.000000 -35.111282 0.000000
            CHANNELS 3 Zrotation Xrotation Yrotation
            JOINT LeftFoot
            {
                OFFSET -0.000000 -42.324711 0.000000
                CHANNELS 3 Zrotation Xrotation Yrotation
                JOINT LeftToeBase
                {
                    OFFSET -0.000000 -5.735999 13.236923
                    CHANNELS 3 Zrotation Xrotation Yrotation
                    End Site
                    {
                        OFFSET -0.000000 0.000000 3.529846
                    }
                }
            }
        }
    }
    JOINT RightUpLeg
    {
        OFFSET -8.824615 0.000000 0.000000
        CHANNELS 3 Zrotation Xrotation Yrotation
        JOINT RightLeg
        {
            OFFSET -0.000000 -35.111282 0.000000
            CHANNELS 3 Zrotation Xrotation Yrotation
            JOINT RightFoot
            {
                OFFSET -0.000000 -42.324711 0.000000
                CHANNELS 3 Zrotation Xrotation Yrotation
                JOINT RightToeBase
                {
                    OFFSET -0.000000 -5.735999 13.236923
                    CHANNELS 3 Zrotation Xrotation Yrotation
                    End Site
                    {
                        OFFSET -0.000000 0.000000 3.529846
                    }
                }
            }
        }
    }
}
MOTION
Frames:    10
Frame Time:    0.008333
1.049239    81.347618    107.808640    0.236313    -6.283044    -178.661224    -1.827211    -9.947883    0.544662    2.311697    5.085896    0.600952    6.224869    7.283579    4.672320    0.424211    -4.902748    4.421537    0.069340    17.997271    -0.040657    -52.003326    41.787586    -34.675148    -0.176280    -6.527787    -17.130085    18.385212    -6.282163    1.691469    7.576704    19.173553    -6.152764    36.471912    45.327690    43.154919    -2.491120    -9.458482    19.254522    -17.082870    -8.486126    -3.739336    4.403481    -9.943796    -3.032233    -2.426939    14.918598    3.030009    -3.923524    -9.756366    -8.901897    -0.370427    -0.208135    0.410759    -5.722517    -17.171549    0.671053    5.897846    27.674892    1.169170    7.045303    -6.072898    -6.522096    -0.230435    -5.026822    0.251042
1.105998    81.358948    107.882881    0.251529    -6.311554    -178.937515    -1.849360    -9.816719    0.510373    2.364673    5.086057    0.564155    6.226651    7.276845    4.628629    0.547634    -5.194351    4.399561    0.079446    17.979210    -0.106664    -51.838253    41.898663    -34.655628    -0.199094    -6.456522    -17.082333    18.347692    -6.199775    1.784743    7.598207    19.182306    -6.170003    36.697124    45.034573    43.046009    -2.664559    -9.502732    19.404991    -17.080856    -8.502719    -3.706877    4.509598    -9.916288    -3.048958    -2.504757    14.797614    3.355348    -3.937160    -9.704996    -8.909396    -0.376092    -0.161586    0.417006    -6.014280    -18.015579    0.578433    6.133825    28.845285    0.844701    7.565993    -5.914251    -6.114364    -0.178380    -5.311321    0.194417
1.165204    81.368233    107.951080    0.259012    -6.334034    -179.204422    -1.871579    -9.697094    0.475296    2.414796    5.095385    0.526673    6.227893    7.289372    4.583498    0.653164    -5.483952    4.374443    0.087080    17.959112    -0.173262    -51.645805    42.017223    -34.659607    -0.228247    -6.367120    -17.013987    18.292030    -6.101153    1.873800    7.620922    19.194899    -6.193417    36.939732    44.734566    42.919025    -2.839087    -9.546533    19.563690    -17.089834    -8.517122    -3.677859    4.609139    -9.876007    -3.055188    -2.577634    14.671921    3.656457    -3.949916    -9.654456    -8.913447    -0.380307    -0.115789    0.421645    -6.341367    -18.812187    0.443066    6.345024    29.952633    0.563563    8.047356    -5.756141    -5.754507    -0.127474    -5.577544    0.138992
1.227231    81.375557    108.012787    0.259194    -6.350459    -179.460953    -1.893004    -9.589431    0.440279    2.461726    5.112786    0.489240    6.228882    7.321023    4.535932    0.739795    -5.769270    4.344796    0.092230    17.937508    -0.239070    -51.430092    42.138664    -34.686470    -0.264169    -6.258338    -16.923491    18.220579    -5.984999    1.959217    7.644341    19.211040    -6.222440    37.197994    44.429962    42.774178    -3.013066    -9.589725    19.728313    -17.111731    -8.529339    -3.652976    4.702540    -9.823710    -3.047862    -2.644827    14.542888    3.930372    -3.963044    -9.604503    -8.915202    -0.382844    -0.071059    0.424424    -6.703448    -19.556557    0.263721    6.523219    30.991060    0.334534    8.481664    -5.601879    -5.448750    -0.078689    -5.822396    0.085834
1.292762    81.381042    108.067726    0.252791    -6.360459    -179.707184    -1.912725    -9.493379    0.406024    2.505614    5.137402    0.452410    6.229524    7.371298    4.484972    0.807366    -6.048451    4.309366    0.095101    17.914999    -0.302753    -51.195049    42.258263    -34.735752    -0.307640    -6.128861    -16.809328    18.136015    -5.849926    2.041860    7.667627    19.230989    -6.256280    37.470184    44.121479    42.612358    -3.184716    -9.632192    19.896767    -17.148531    -8.539471    -3.632650    4.790922    -9.759559    -3.024452    -2.705920    14.411609    4.176585    -3.977921    -9.554993    -8.916550    -0.383353    -0.028063    0.424955    -7.100892    -20.246244    0.040283    6.661337    31.958138    0.163837    8.864460    -5.453416    -5.200196    -0.032643    -6.044115    0.035622
1.361778    81.384743    108.115135    0.240740    -6.363541    -179.941010    -1.929920    -9.409429    0.373287    2.546873    5.168097    0.417328    6.229285    7.439199    4.430457    0.855421    -6.317619    4.267734    0.095424    17.891781    -0.362571    -50.948334    42.370850    -34.804359    -0.358300    -5.979923    -16.672235    18.042204    -5.697012    2.121724    7.688783    19.254391    -6.293637    37.752697    43.813148    42.436050    -3.350628    -9.672950    20.064465    -17.200989    -8.547207    -3.617018    4.874690    -9.684502    -2.983916    -2.760321    14.280843    4.392951    -3.995599    -9.506654    -8.918842    -0.381870    0.012602    0.423280    -7.529013    -20.872292    -0.222655    6.752409    32.842144    0.057333    9.190038    -5.313516    -5.012106    0.009825    -6.239244    -0.010716
1.434922    81.386711    108.154869    0.223942    -6.359158    179.837021    -1.943907    -9.336366    0.343005    2.586057    5.203660    0.384267    6.227769    7.522845    4.371903    0.884953    -6.574403    4.219346    0.093015    17.868155    -0.417423    -50.695118    42.472164    -34.889492    -0.416318    -5.812098    -16.512661    17.943222    -5.526585    2.199831    7.706851    19.281084    -6.333255    38.042877    43.506630    42.246662    -3.509578    -9.712038    20.228479    -17.269236    -8.552979    -3.605850    4.955069    -9.598601    -2.925415    -2.807932    14.151962    4.580786    -4.017156    -9.460000    -8.923749    -0.378406    0.050477    0.419411    -7.986588    -21.433098    -0.520627    6.792763    33.641296    0.016485    9.458642    -5.182273    -4.882883    0.048620    -6.407046    -0.053071
1.512645    81.386932    108.186676    0.203439    -6.346664    179.626694    -1.953664    -9.273224    0.315619    2.622798    5.243010    0.353942    6.224958    7.620810    4.309335    0.897302    -6.816877    4.164292    0.088783    17.844433    -0.466116    -50.442329    42.558014    -34.987316    -0.481387    -5.627299    -16.332474    17.843349    -5.340315    2.276425    7.720915    19.311136    -6.373700    38.337608    43.203884    42.046806    -3.659594    -9.748968    20.384960    -17.352686    -8.556858    -3.598646    5.033227    -9.502310    -2.849007    -2.848979    14.027013    4.741296    -4.043386    -9.415818    -8.932424    -0.373126    0.085688    0.413534    -8.470501    -21.925669    -0.846214    6.780854    34.351597    0.040696    9.670825    -5.059298    -4.810329    0.083508    -6.547325    -0.091178
1.595413    81.385315    108.210442    0.180089    -6.325462    179.427536    -1.958784    -9.218528    0.291567    2.657610    5.284912    0.326835    6.219619    7.731111    4.242809    0.895242    -7.043565    4.103008    0.082452    17.820595    -0.507855    -50.195896    42.625195    -35.092995    -0.553026    -5.428221    -16.134708    17.746895    -5.140608    2.351900    7.729819    19.343927    -6.413379    38.632034    42.909428    41.839287    -3.800575    -9.784986    20.530966    -17.449896    -8.560334    -3.595603    5.110216    -9.396053    -2.755317    -2.883631    13.908037    4.876970    -4.075602    -9.375001    -8.946531    -0.366157    0.117929    0.405786    -8.977702    -22.348307    -1.190965    6.717309    34.970310    0.126977    9.828952    -4.943189    -4.790716    0.114472    -6.660348    -0.125010
1.683396    81.381737    108.226135    0.154716    -6.295119    179.239395    -1.958715    -9.171038    0.271325    2.689954    5.328348    0.303286    6.210928    7.850965    4.172693    0.882328    -7.252235    4.036494    0.075111    17.796711    -0.542154    -49.962345    42.671463    -35.201370    -0.629756    -5.219202    -15.924138    17.656990    -4.931553    2.426131    7.732921    19.379095    -6.451124    38.925053    42.623035    41.626335    -3.929516    -9.817835    20.661871    -17.558601    -8.562285    -3.594671    5.186664    -9.280926    -2.645901    -2.912104    13.797921    4.989349    -4.114481    -9.338936    -8.966208    -0.357615    0.146738    0.396299    -9.503310    -22.699194    -1.543900    6.605876    35.494232    0.269339    9.936004    -4.832656    -4.819882    0.141470    -6.746496    -0.154516
